<svg width="96" height="80" viewBox="0 0 96 80" fill="none" xmlns="http://www.w3.org/2000/svg">
<path d="M67.01 51H61.82L56.84 42.9L51.86 51H47L54.11 39.96L47.45 29.58H52.46L57.08 37.29L61.61 29.58H66.5L59.78 40.2L67.01 51Z" fill="#565656"/>
<path d="M64.7 51V29.58H81.65V51H77.12V33.36H69.23V51H64.7Z" fill="#565656"/>
<path d="M45 44.0998V51.2516H15V44.0998H17.0435V36.0659L22.8022 32.0255V36.0659L28.5599 32.0255V36.0659L34.3189 32.0255V39.967H36.3058L37.3849 25.9189H40.6783L41.6228 39.967H43.8386V44.1003L45 44.0998ZM24.4042 41.0114H19.8767V45.1909H24.4042V41.0114ZM32.2056 41.0114H27.678V45.1909H32.2056V41.0114ZM40.1051 41.0114H35.5776V45.1909H40.1051V41.0114Z" fill="#565656"/>
<path d="M38.3641 17.0494C38.3641 17.0494 38.2314 17.0958 38.0375 17.2319C37.9401 17.2988 37.8256 17.3882 37.7106 17.5074C37.5916 17.6243 37.4712 17.7712 37.3592 17.9549C37.3061 18.0473 37.2513 18.1451 37.2086 18.2579C37.1575 18.3661 37.1241 18.4878 37.1001 18.6197C37.0412 18.8784 37.0675 19.1822 37.1617 19.4704C37.2291 19.605 37.2843 19.7527 37.3749 19.872C37.4743 19.9854 37.5488 20.1142 37.6737 20.2078C37.7885 20.3003 37.9193 20.4141 38.0331 20.4615L38.386 20.6059C38.3842 20.6045 38.4153 20.6237 38.4033 20.6162L38.4064 20.6174L38.4114 20.6193L38.4208 20.6234L38.4417 20.6314L38.4824 20.6478L38.5643 20.6815L38.7274 20.7555C38.8368 20.8064 38.9139 20.8932 39.0012 20.9685C39.0915 21.043 39.1336 21.153 39.1864 21.2481C39.2322 21.3473 39.2324 21.4631 39.2488 21.5595C39.2347 21.7713 39.1881 21.9437 39.1406 22.1106C39.1287 22.1518 39.1198 22.1927 39.1131 22.2337C39.103 22.2749 39.0886 22.3154 39.0802 22.3563C39.0639 22.4367 39.0377 22.5167 39.0124 22.5939L39.0122 22.5946C38.9661 22.7497 38.9119 22.8969 38.8625 23.0308L38.8621 23.032C38.8121 23.171 38.7674 23.2921 38.7319 23.3919C38.6551 23.5969 38.6156 23.73 38.6156 23.73L38.675 23.7891C38.675 23.7891 38.7076 23.7762 38.7681 23.7518C38.8266 23.7229 38.9124 23.6818 39.0087 23.6125C39.1072 23.5462 39.2196 23.455 39.334 23.335C39.4482 23.2143 39.5652 23.0642 39.6641 22.8772C39.7133 22.7837 39.7629 22.6845 39.796 22.5702C39.8145 22.5143 39.8328 22.4579 39.8471 22.398C39.8561 22.3363 39.8638 22.2736 39.8682 22.2093C39.8945 21.9522 39.7984 21.6698 39.6742 21.4297C39.591 21.3163 39.5256 21.198 39.4405 21.0979C39.3463 21.0048 39.2847 20.8857 39.1879 20.799C39.0943 20.7108 39.017 20.5992 38.92 20.5119L38.7775 20.3725L38.7075 20.2985L38.6717 20.2612L38.6538 20.2427L38.6452 20.2334L38.6406 20.2286L38.6384 20.2266C38.6246 20.2176 38.6542 20.2364 38.6504 20.2338L38.3943 19.951C38.3427 19.9068 38.3216 19.8613 38.2956 19.8188C38.2684 19.7793 38.241 19.7424 38.2146 19.7069L38.2119 19.7034C38.1515 19.6347 38.1216 19.5358 38.0736 19.4611C38.0346 19.3791 38.0235 19.2942 37.9924 19.2187C37.9776 19.0538 37.9541 18.9038 37.97 18.7391C37.9737 18.6983 37.9735 18.6575 37.9747 18.6168C37.9807 18.5755 37.9906 18.5356 37.9945 18.494C38.0007 18.4114 38.0218 18.3309 38.0431 18.2519C38.0757 18.0918 38.1275 17.9416 38.1717 17.8037C38.2209 17.6636 38.2646 17.5413 38.3001 17.4415C38.3777 17.2298 38.4228 17.1086 38.4228 17.1086L38.3641 17.0494Z" fill="#565656"/>
</svg>
